<svg width="24" height="24" viewBox="0 0 24 24" fill="none" xmlns="http://www.w3.org/2000/svg">
<path d="M2.63884 17.2646C2.39803 17.4749 2.28966 17.9555 2.39803 18.376C2.5064 18.7966 2.78935 19.0068 3.04823 18.8667L11.263 14.0214L9.64958 17.9264C9.54723 18.1967 9.57131 18.5471 9.70376 18.7774C9.83621 19.0077 10.0409 19.0678 10.2095 18.9176L11.6483 17.676C11.6905 17.636 11.7266 17.5959 11.7567 17.5359L16.0191 10.1364L21.2809 5.5706C23.2737 3.78833 23.0449 2.41658 22.9245 2.03609C22.8342 1.74572 22.6295 1.34521 22.172 1.14496C21.7084 0.934687 21.0883 0.954712 20.2635 1.19502C19.9866 1.27512 19.8361 1.26511 19.6795 1.26511C19.1136 1.23507 18.7343 1.30516 16.8379 2.93724L6.4648 11.9087L2.44318 8.43425C2.29267 8.30408 2.11206 8.30408 1.96155 8.43425L1.28125 9.025C1.14278 9.14516 1.04044 9.36544 1.01033 9.61576C0.980232 9.87609 1.01635 10.1364 1.11268 10.3467L3.90614 16.1241L2.63884 17.2646Z" fill="white"/>
<path d="M21.9652 22H1.99191C1.42859 22 1 22.1851 1 22.545C1 22.9049 1.08266 23 1.64598 23C1.64598 23 21.4876 22.9565 22.0509 22.9565C22.6143 22.9565 23 22.9049 23 22.545C23 22.1851 22.5224 22 21.9591 22H21.9652Z" fill="white"/>
</svg>
